Coordinates
version=1
nRows=13
nColumns=22
inDegrees=yes

Units are S.I. units (second, meters, Newtons, ...)
If the header above contains a line with 'inDegrees', this indicates whether rotational values are in degrees (yes) or radians (no).

endheader
time	pelvis_tilt	pelvis_list	pelvis_rotation	pelvis_tx	pelvis_ty	pelvis_tz	hip_flexion_r	hip_adduction_r	hip_rotation_r	knee_angle_r	ankle_angle_r	subtalar_angle_r	hip_flexion_l	hip_adduction_l	hip_rotation_l	knee_angle_l	ankle_angle_l	subtalar_angle_l	lumbar_extension	lumbar_bending	lumbar_rotation
      2.67000000	      5.89750996	      0.57946436	    -25.66489602	      0.03011390	      0.90032822	      0.07324835	     21.21364341	     -8.45739969	     -7.85106327	    -41.69033082	     16.26898152	    -11.74811642	     -5.32896459	      6.08615973	     -8.09653606	    -17.42148533	     18.12837693	     -5.93225838	    -11.69510050	     -3.82025723	      0.66094304
      2.68000000	      5.99453494	      0.26503244	    -25.40875243	      0.03787399	      0.89968002	      0.07740526	     20.93535627	     -8.30690746	     -9.12179735	    -38.72909343	     16.15299430	    -10.59679981	     -6.20408529	      5.74790880	     -7.85444136	    -17.44042540	     18.63246298	     -5.80176178	    -11.94551762	     -3.56932035	      0.41670643
      2.69000000	      6.11144738	     -0.08293248	    -25.14304689	      0.04562303	      0.89900351	      0.08169348	     20.53897904	     -8.09406283	    -10.52096929	    -35.69687506	     15.97876729	     -9.56433287	     -7.10211152	      5.37144720	     -7.56899684	    -17.48159294	     19.12024927	     -5.67409884	    -12.23456772	     -3.30647097	      0.19624695
      2.70000000	      6.24203591	     -0.44388127	    -24.87541087	      0.05336728	      0.89826580	      0.08610890	     20.06781307	     -7.82047611	    -12.00479419	    -32.65095523	     15.77787840	     -8.65450513	     -8.00786387	      4.97837295	     -7.24093118	    -17.54398962	     19.61893298	     -5.54691388	    -12.54378785	     -3.05271299	      0.01466503
      2.71000000	      6.33290636	     -0.80740746	    -24.61311810	      0.06108698	      0.89737669	      0.09065019	     19.61068746	     -7.45869387	    -13.51888293	    -29.64912118	     15.49695907	     -7.44509542	     -8.82907814	      4.53820150	     -6.99418986	    -17.69257124	     20.08876690	     -5.38339775	    -12.80920957	     -2.78309412	     -0.15089185
      2.72000000	      6.42539587	     -1.17244171	    -24.35130509	      0.06876913	      0.89639751	      0.09535010	     19.14975378	     -7.01782525	    -14.99837383	    -26.75235055	     15.23310278	     -6.45761433	     -9.63206984	      4.08191062	     -6.71460404	    -17.87865252	     20.58109348	     -5.22766810	    -13.07867074	     -2.53902720	     -0.25009216
      2.73000000	      6.48564716	     -1.52267386	    -24.10849483	      0.07645087	      0.89528041	      0.10017916	     18.75388871	     -6.50131023	    -16.36101907	    -24.01866687	     14.93135166	     -5.33572232	    -10.37753855	      3.61022245	     -6.50694685	    -18.10310790	     21.04010061	     -5.03892422	    -13.29875670	     -2.30125447	     -0.32103204
      2.74000000	      6.50046302	     -1.84203304	    -23.89280996	      0.08413867	      0.89400536	      0.10517585	     18.46704858	     -5.92390344	    -17.51776511	    -21.51428600	     14.64662578	     -4.24882787	    -11.05878945	      3.13504583	     -6.36421552	    -18.34406060	     21.48559034	     -4.83893691	    -13.44429007	     -2.09057196	     -0.36725896
      2.75000000	      6.48161124	     -2.12618846	    -23.69775440	      0.09178267	      0.89260801	      0.11025956	     18.28614630	     -5.31125273	    -18.38857545	    -19.26633527	     14.35042619	     -3.16895122	    -11.65361270	      2.67000793	     -6.26311829	    -18.65390968	     21.86837969	     -4.62499094	    -13.54216381	     -1.91072667	     -0.36291062
      2.76000000	      6.42766294	     -2.37345583	    -23.53023788	      0.09950168	      0.89110834	      0.11546762	     18.20898445	     -4.69138459	    -18.97123327	    -17.31262448	     14.11536541	     -2.15012137	    -12.21253750	      2.22186291	     -6.21967442	    -18.94875927	     22.22267515	     -4.40590321	    -13.56793489	     -1.75597518	     -0.35168149
      2.77000000	      6.34282306	     -2.56937499	    -23.37989746	      0.10724687	      0.88953160	      0.12076296	     18.23257027	     -4.09695682	    -19.21567953	    -15.66414716	     13.91440180	     -1.22892644	    -12.70823904	      1.80666073	     -6.19245699	    -19.26706044	     22.51497504	     -4.19257589	    -13.52971470	     -1.64728895	     -0.32371421
      2.78000000	      6.22859834	     -2.73889182	    -23.24045610	      0.11511221	      0.88792000	      0.12614253	     18.31775122	     -3.52703046	    -19.18083768	    -14.31127964	     13.78554146	     -0.45327061	    -13.17198434	      1.40309937	     -6.18772971	    -19.58557053	     22.76683762	     -3.99811570	    -13.43027739	     -1.54720631	     -0.29909133
      2.79000000	      6.08295585	     -2.88148499	    -23.11194668	      0.12309835	      0.88628963	      0.13162832	     18.45769847	     -2.99062992	    -18.89274968	    -13.25839697	     13.72898377	      0.11913386	    -13.59641924	      1.00834597	     -6.19158166	    -19.91500745	     22.96214748	     -3.84064141	    -13.26408177	     -1.45748543	     -0.26454661
